<svg width="112" height="29" viewBox="0 0 112 29" fill="none" xmlns="http://www.w3.org/2000/svg">
<g clip-path="url(#clip0_1_848)">
<path d="M0 12.1327H12.0132V0.00213623H0V12.1327Z" fill="white"/>
<path d="M9.69968 3.13736C7.90345 5.88074 5.26761 9.5137 0.373657 9.21303V0.381531H11.3563C11.3563 0.381531 10.7138 1.59252 9.69968 3.13736Z" fill="#0D72BA"/>
<path d="M0.373657 9.87868V11.7553H11.6396V0.524628C11.6396 0.524628 8.03483 10.5961 0.373657 9.87868Z" fill="#E1A435"/>
<path d="M4.19597 3.39865C2.67482 3.39865 1.44312 4.6366 1.44312 6.17107C1.44312 7.43597 2.28272 8.49973 3.43436 8.83358C4.80566 8.38568 5.94293 7.59356 6.90981 6.66873C6.93855 6.50906 6.95292 6.3411 6.95292 6.17107C6.95292 4.6366 5.72122 3.39865 4.19597 3.39865Z" fill="#1182BD"/>
<path d="M6.2673 6.17105C6.2673 7.31983 5.34147 8.25295 4.19599 8.25295C3.05461 8.25295 2.12878 7.31983 2.12878 6.17105C2.12878 5.02435 3.05461 4.09744 4.19599 4.09744C5.34147 4.09744 6.2673 5.02435 6.2673 6.17105Z" fill="#5795C4"/>
<path d="M5.57756 6.17106C5.57756 6.9383 4.95555 7.55208 4.196 7.55208C3.4385 7.55208 2.82471 6.9383 2.82471 6.17106C2.82471 5.40797 3.4385 4.78589 4.196 4.78589C4.95555 4.78589 5.57756 5.40797 5.57756 6.17106Z" fill="#86ADD3"/>
<path d="M4.88781 6.17104C4.88781 6.55673 4.57577 6.86363 4.196 6.86363C3.81623 6.86363 3.5083 6.55673 3.5083 6.17104C3.5083 5.78742 3.81623 5.48053 4.196 5.48053C4.57577 5.48053 4.88781 5.78742 4.88781 6.17104Z" fill="#B9CCDC"/>
<path d="M18.9025 2.69984H20.4606C20.9861 2.69984 21.3639 2.79316 21.5856 2.97771C21.7929 3.16226 21.9017 3.41731 21.9017 3.74287C21.9017 4.09745 21.7929 4.36495 21.5856 4.5495C21.3639 4.7382 20.9779 4.82529 20.4298 4.82529H18.9025V2.69984ZM15.3429 11.6744H21.4337C21.6882 11.6744 22.2219 11.6247 23.0082 11.523C23.6097 11.4484 24.0551 11.3281 24.3528 11.1539C24.8311 10.8844 25.2068 10.5111 25.4777 10.0466C25.7569 9.58837 25.8924 9.05545 25.8924 8.47484C25.8924 7.75323 25.6994 7.1581 25.3115 6.68325C24.9276 6.21046 24.3199 5.87454 23.5009 5.67962C24.0387 5.50336 24.4472 5.24416 24.7305 4.93312C25.1513 4.45412 25.3669 3.88387 25.3669 3.2141C25.3669 2.42198 25.0733 1.7522 24.4801 1.21721C23.893 0.680148 23.0451 0.404358 21.9469 0.404358H15.3429V11.6744ZM18.9025 6.97562H20.6864C21.3125 6.97562 21.7395 7.0793 21.99 7.28044C22.2363 7.47744 22.3615 7.74286 22.3615 8.07464C22.3615 8.4313 22.2343 8.71538 21.9879 8.92689C21.7395 9.14047 21.3084 9.24208 20.6987 9.24208H18.9025" fill="#0D72BA"/>
<path d="M30.4312 2.67911H31.9688C32.6093 2.67911 33.0445 2.77657 33.2785 2.97356C33.5105 3.16226 33.6234 3.44427 33.6234 3.803C33.6234 4.05391 33.5515 4.26749 33.4058 4.46034C33.26 4.65111 33.0671 4.7693 32.8392 4.81492C32.3753 4.92068 32.0653 4.96837 31.9093 4.96837H30.4312V2.67911ZM30.4312 11.6744V7.10004H30.7371C31.0615 7.10004 31.3489 7.18091 31.6014 7.35717C31.78 7.49195 31.9934 7.78018 32.2377 8.22808L34.112 11.6744H38.1027L36.3845 8.41056C36.2962 8.24675 36.134 8.0145 35.8918 7.70968C35.6475 7.40279 35.4607 7.20372 35.3272 7.11248C35.1343 6.97355 34.8325 6.83462 34.4117 6.69776C34.9393 6.58164 35.356 6.42404 35.6557 6.25401C36.132 5.97407 36.5076 5.6029 36.7765 5.15292C37.0496 4.69465 37.1851 4.15966 37.1851 3.53343C37.1851 2.81389 37.0085 2.21462 36.6513 1.71073C36.3003 1.21099 35.8343 0.866773 35.2575 0.688442C34.6806 0.512186 33.8431 0.404358 32.7571 0.404358H26.8757V11.6744" fill="#0D72BA"/>
<path d="M42.7503 7.38413L44.0046 3.33437L45.2445 7.38413H42.7503ZM46.5604 11.6744H50.2575L45.9938 0.404358H42.1037L37.8153 11.6744H41.4201L42.001 9.81647H45.9876" fill="#0D72BA"/>
<path d="M57.9515 7.03369L61.0574 7.92326C60.8501 8.74856 60.5175 9.44529 60.0679 10.001C59.6225 10.5547 59.0662 10.9694 58.4031 11.2535C57.74 11.5334 56.9045 11.6744 55.8761 11.6744C54.6341 11.6744 53.6179 11.5065 52.8317 11.1622C52.0475 10.8159 51.3619 10.2125 50.7973 9.34783C50.2246 8.48106 49.9434 7.37168 49.9434 6.01969C49.9434 4.21565 50.4381 2.83048 51.4481 1.86211C52.4519 0.891656 53.8684 0.404358 55.7057 0.404358C57.1509 0.404358 58.2738 0.688442 59.0949 1.2421C59.9201 1.80197 60.5298 2.65422 60.9342 3.80093L57.8078 4.47693C57.6949 4.141 57.5861 3.89217 57.4629 3.74079C57.2699 3.47537 57.0256 3.28253 56.7423 3.13945C56.4549 3.00052 56.1368 2.92794 55.7898 2.92794C54.9933 2.92794 54.3816 3.23483 53.9567 3.84655C53.6323 4.30274 53.4722 5.01606 53.4722 5.98859C53.4722 7.19335 53.6672 8.0228 54.049 8.4707C54.4309 8.91652 54.9749 9.14047 55.6708 9.14047C56.3461 9.14047 56.8532 8.95799 57.2001 8.60341C57.5491 8.24467 57.7955 7.72005 57.9515 7.03369Z" fill="#0D72BA"/>
<path d="M68.4168 2.69984H69.9729C70.5045 2.69984 70.8802 2.79316 71.0978 2.97771C71.3113 3.16226 71.416 3.41731 71.416 3.74287C71.416 4.09745 71.3113 4.36495 71.0978 4.5495C70.8802 4.7382 70.5004 4.82529 69.9503 4.82529H68.4168V2.69984ZM64.8593 11.6744H70.95C71.2128 11.6744 71.7404 11.6247 72.5307 11.523C73.126 11.4484 73.5735 11.3281 73.8732 11.1539C74.3433 10.8844 74.7211 10.5111 75.0023 10.0466C75.2733 9.58837 75.4108 9.05545 75.4108 8.47484C75.4108 7.75323 75.2158 7.1581 74.834 6.68325C74.4419 6.21046 73.8425 5.87454 73.0193 5.67962C73.553 5.50336 73.9656 5.24416 74.2489 4.93312C74.6677 4.45412 74.8791 3.88387 74.8791 3.2141C74.8791 2.42198 74.5876 1.7522 73.9944 1.21721C73.4011 0.680148 72.5635 0.404358 71.4632 0.404358H64.8593V11.6744ZM68.4168 6.97562H70.2028C70.8289 6.97562 71.26 7.0793 71.5125 7.28044C71.7588 7.47744 71.8738 7.74286 71.8738 8.07464C71.8738 8.4313 71.7506 8.71538 71.5043 8.92689C71.2559 9.14047 70.8268 9.24208 70.2192 9.24208H68.4168" fill="#0D72BA"/>
<path d="M79.8245 7.38413L81.0808 3.33437L82.3166 7.38413H79.8245ZM83.6325 11.6744H87.3338L83.0741 0.404358H79.1799L74.8977 11.6744H78.5004L79.0773 9.81647H83.0639" fill="#0D72BA"/>
<path d="M87.5226 0.404358H90.8092L95.1242 6.64177V0.404358H98.4601V11.6744H95.1242L90.8379 5.48055V11.6744H87.5226" fill="#0D72BA"/>
<path d="M99.8766 0.404358H103.41V4.66562L107.107 0.404358H111.806L107.632 4.65111L111.999 11.6744H107.649L105.243 7.07516L103.41 8.94763V11.6744H99.8766" fill="#0D72BA"/>
<path d="M99.9217 19.8776L99.932 19.8652L99.9402 19.8527L99.9217 19.8776ZM104.206 23.3364C104.247 23.4255 104.272 23.5064 104.272 23.5769C104.272 23.6474 104.255 23.7117 104.224 23.7698C103.986 24.2363 102.956 24.566 102.35 24.6739C102.059 24.6635 101.991 24.4935 101.975 24.3836L102.12 21.8268C103.017 22.1752 104.068 23.1995 104.206 23.3364ZM99.4598 24.3566C98.6859 23.9875 97.8032 23.3447 97.7621 23.3156C97.6554 23.241 97.5979 23.1663 97.5794 23.0751L97.5712 22.9984C97.5712 22.8615 97.6349 22.6832 97.7416 22.5173V22.5152L97.7457 22.5028C98.2384 21.6713 99.2607 20.9766 99.7062 20.6988C99.5132 21.8911 99.4701 23.5852 99.4598 24.3566ZM111.746 19.4338C110.783 18.7848 109.991 19.2182 109.701 19.5334L109.644 19.6267L109.632 19.6578C108.476 19.0212 106.544 19.297 106.524 19.3011C105.524 19.4173 105.039 19.5686 104.892 19.6225C103.477 19.0834 102.482 19.6018 102.036 19.9336C101.626 19.5106 101.207 19.3011 100.788 19.326C100.246 19.3633 99.9587 19.7677 99.932 19.8071L99.8848 19.8838L99.8786 19.9025C98.8768 19.0233 97.2736 19.3281 96.4853 19.5624L96.514 19.4919L96.4832 19.5334L96.5345 19.4504C96.6269 19.1705 97.136 17.8102 98.2877 17.439C99.1601 17.155 100.23 17.4992 101.461 18.4572C101.529 18.5152 101.619 18.5422 101.714 18.5298C101.808 18.5173 101.894 18.4675 101.952 18.3929C102.069 18.2374 102.038 18.0155 101.888 17.8973C100.458 16.7879 99.1724 16.4085 98.0639 16.7672C96.4463 17.2918 95.8776 19.1871 95.8694 19.2223C95.7093 19.5583 95.5594 20.1389 95.4219 20.9372C94.9395 19.9336 94.494 19.4027 94.0301 19.3364C93.7653 19.3011 93.599 19.4048 93.5066 19.494L93.4573 19.5044L93.4265 19.5126L93.404 19.5313C93.0427 19.8237 92.7512 21.3582 92.5274 24.0684C92.3262 23.9481 92.0778 23.7988 91.7555 23.6246C91.9793 23.2368 92.1558 22.7744 92.2729 22.2C92.3324 21.8206 92.5418 19.9688 91.1294 19.5044L91.1192 19.5002L91.1089 19.4981C90.9447 19.4691 90.0968 19.3426 89.4091 19.8278C88.9514 20.1534 88.6701 20.6697 88.5757 21.3623V21.381C88.5736 21.5033 88.5921 22.1233 89.015 22.5007C89.2901 22.7413 89.6493 22.8242 90.0784 22.7516C90.2672 22.7267 90.4007 22.5422 90.3719 22.3514C90.3596 22.2581 90.3103 22.1731 90.2364 22.1192C90.1605 22.0632 90.0619 22.0383 89.9696 22.057C89.8177 22.0798 89.6062 22.086 89.481 21.9719C89.286 21.7978 89.2778 21.4639 89.2757 21.4307C89.3394 20.96 89.5179 20.6179 89.8074 20.4105C90.2118 20.1244 90.7271 20.1596 90.9406 20.1886C91.5318 20.3836 91.6201 21.1446 91.6201 21.5821C91.6201 21.7439 91.6077 21.9139 91.5872 22.0632V22.0673C91.4764 22.5982 91.306 23.0502 91.0822 23.411L91.0925 23.4007L90.8318 23.7345L90.7763 23.8029C90.1831 24.425 89.5159 24.3836 89.5097 24.3836C86.9026 24.0642 86.7446 19.4981 86.7405 19.4546C86.7343 19.2555 86.5742 19.1 86.3812 19.1021C86.1903 19.1083 86.0343 19.268 86.0384 19.4608C86.0446 19.6785 86.219 24.6925 89.4297 25.0907H89.4482C89.557 25.0969 90.5464 25.1072 91.3532 24.2032C92.0183 24.5681 92.4781 24.8563 92.5356 24.9289C92.63 25.0471 92.7881 25.099 92.9215 25.0596C93.0694 25.0098 93.1699 24.8937 93.1761 24.7547C93.3567 22.2291 93.679 20.2612 93.8556 20.0767L93.7899 20.1119C93.8433 20.1036 93.8843 20.0704 93.9254 20.0414H93.9274C93.9521 20.0476 94.3688 20.1347 95.0729 21.8579C95.1058 21.9367 95.1735 21.9927 95.2556 22.03C95.1448 22.8429 95.0524 23.7615 94.9744 24.7796L94.9682 24.8584V24.8854C94.9682 25.072 95.1099 25.2275 95.2926 25.242C95.4876 25.2483 95.6518 25.1052 95.6682 24.9103C95.6682 24.8791 95.8776 22.0238 96.2348 20.396L96.2574 20.3919C96.3375 20.3587 98.0393 19.7159 99.1047 20.2467C98.573 20.5951 97.6574 21.269 97.1504 22.1316C97.1545 22.1233 96.8691 22.5215 96.8691 23.0005C96.8691 23.0585 96.8753 23.1207 96.8876 23.1995C96.943 23.4919 97.1093 23.7304 97.3618 23.8963C97.5958 24.0684 98.8091 24.9393 99.7 25.2254C99.8252 25.2524 99.9402 25.2317 100.02 25.1653C100.104 25.1052 100.158 24.9994 100.158 24.8854V24.7962C100.158 24.4437 100.168 21.3291 100.529 20.1866C100.568 20.1451 100.671 20.0414 100.839 20.031C101.02 20.0248 101.25 20.1596 101.5 20.4064C101.467 20.9662 101.285 24.2301 101.277 24.3794C101.287 24.7361 101.529 25.3851 102.365 25.3851H102.373L102.395 25.383H102.399L102.406 25.381H102.42C102.751 25.3229 104.387 24.9953 104.849 24.0995C104.935 23.9253 104.974 23.7594 104.974 23.579C104.974 23.3861 104.924 23.1912 104.828 22.9922L104.764 22.8968C104.754 22.8864 103.362 21.4535 102.165 21.0927L102.188 20.705L102.266 20.6614C102.282 20.6428 103.149 19.6308 104.762 20.3193C104.849 20.3525 104.943 20.3545 105.023 20.3276L105.05 20.3193L105.054 20.3131C105.093 20.3006 105.563 20.1244 106.618 20.002C106.702 19.9896 108.574 19.7553 109.412 20.3483C109.326 20.7568 109.281 21.2006 109.25 21.6049C109.045 21.4349 108.827 21.325 108.595 21.3312C108.271 21.3478 107.967 21.5406 107.683 21.8911C107.552 21.6713 107.402 21.495 107.217 21.3934C106.873 21.1985 106.544 21.242 106.388 21.2814L106.355 21.2877H106.353V21.296C105.51 21.4618 105.228 22.8906 105.146 23.5147C105.017 24.8107 105.881 24.9434 105.916 24.9476C106.721 25.0015 107.131 24.4395 107.236 24.1326C107.295 23.9481 107.201 23.747 107.025 23.6827C106.834 23.6205 106.639 23.7159 106.575 23.8963C106.567 23.917 106.442 24.2612 106 24.2446C105.973 24.2301 105.789 24.1409 105.844 23.5956C105.93 22.8615 106.228 22.0113 106.497 21.9782L106.556 21.9657C106.556 21.9657 106.719 21.9201 106.885 22.0155C107.068 22.1233 107.205 22.3639 107.285 22.7205C107.316 22.8657 107.437 22.9756 107.585 22.9922C107.743 23.0088 107.881 22.93 107.946 22.7931C108.055 22.5401 108.373 22.0528 108.626 22.0404C108.774 22.0342 108.966 22.227 109.157 22.5733L109.209 22.6293C109.201 23.5831 109.254 24.369 109.256 24.4043C109.27 24.5992 109.437 24.7464 109.628 24.7319C109.82 24.7153 109.956 24.566 109.956 24.3773L109.937 24.2985L109.954 24.3607L109.952 24.3276C109.925 23.8403 109.911 23.3281 109.911 22.8429C109.911 21.4618 110.032 20.4748 110.262 19.9771C110.381 19.8652 110.752 19.6143 111.346 20.0165C111.413 20.0704 111.512 20.0891 111.606 20.0704C111.703 20.0518 111.785 19.9979 111.832 19.9191C111.935 19.7656 111.9 19.552 111.746 19.4338ZM77.979 22.3825C77.4206 21.721 76.6754 21.6339 76.3203 21.6962C76.0904 21.7356 75.9159 21.8724 75.7742 22.0528L75.7414 22.0031L75.7496 22.0176L75.7024 21.9595L75.7106 21.9657L75.7024 21.9554L75.6921 21.945C75.222 21.5137 75.4314 20.7361 75.4663 20.6137L75.4684 20.6117L75.4807 20.5702L75.4848 20.5495C75.7209 20.3276 76.659 19.5666 77.7491 20.3151C77.8332 20.6407 78.0016 21.3644 78.0016 22.113C78.0016 22.2083 77.9872 22.2913 77.979 22.3825ZM81.7603 19.3447L81.748 19.3426H81.7377C81.5386 19.3426 81.3641 19.4173 81.2348 19.552C81.0233 19.7718 81.0048 20.0974 81.0048 20.228V20.4022C80.8139 20.1596 80.6004 19.9481 80.3459 19.8092C79.4591 19.3447 78.5004 19.6557 78.3177 19.7262L78.252 19.803C76.737 18.6562 75.3739 19.7096 75.0332 20.0082C74.7252 19.8527 74.1053 19.5562 74.0519 19.5458L74.1032 19.5666C73.6947 19.2991 73.4114 19.3571 73.2451 19.4504C72.9413 19.6308 72.89 20.0082 72.8797 20.1928C72.5431 19.6744 72.2146 19.3862 71.8841 19.3364C71.6029 19.297 71.4345 19.4173 71.3586 19.494L71.3114 19.5044L71.2826 19.5126L71.26 19.5313C70.7879 19.917 70.5108 22.4406 70.3794 24.0684C70.1433 23.9211 69.8785 23.7677 69.6116 23.6246C69.8395 23.2203 70.0181 22.7496 70.1248 22.2C70.1433 22.1067 70.4902 20.002 68.9814 19.5044L68.9711 19.4981H68.9588C68.7248 19.4567 67.9262 19.3592 67.2632 19.8278C66.8074 20.1534 66.5283 20.6656 66.4297 21.3623C66.4297 21.3747 66.3989 22.0798 66.869 22.5007C67.1421 22.7413 67.4993 22.8242 67.9365 22.7516C68.0268 22.7392 68.1089 22.6873 68.1623 22.6127C68.2177 22.5339 68.2383 22.4364 68.2198 22.3411C68.2075 22.256 68.1603 22.1731 68.0843 22.1192C68.0063 22.0632 67.9119 22.0383 67.8174 22.057C67.6696 22.0798 67.4623 22.086 67.3371 21.9699C67.1954 21.8455 67.138 21.6132 67.1318 21.4266C67.1995 20.958 67.3761 20.6137 67.6655 20.4105C68.0638 20.1244 68.577 20.1596 68.7884 20.1886C69.353 20.3753 69.472 21.0492 69.472 21.5821C69.472 21.7439 69.4577 21.9139 69.4351 22.0632V22.0653C69.3324 22.5878 69.1641 23.0399 68.9403 23.411L68.6878 23.7345L68.6509 23.7801C68.0494 24.4292 67.3699 24.3836 67.3638 24.3836C64.7567 24.0642 64.5986 19.4981 64.5965 19.4546C64.5883 19.2514 64.4303 19.1 64.2373 19.1021C64.1388 19.1041 64.0525 19.1435 63.9869 19.214C63.9232 19.2804 63.8904 19.3716 63.8924 19.467C63.8986 19.6785 64.0443 24.6904 67.2837 25.0907H67.3001C67.4808 25.099 68.423 25.0865 69.2072 24.2032C69.8621 24.5577 70.3301 24.8543 70.3937 24.9289C70.48 25.0471 70.6442 25.1052 70.7776 25.0596C70.9213 25.0119 71.0199 24.8999 71.0322 24.7568C71.2108 22.2291 71.531 20.2633 71.7096 20.0767L71.7794 20.0414C71.804 20.0456 72.19 20.1368 72.8387 21.6464L72.7442 25.0284C72.7422 25.2254 72.8962 25.3851 73.0891 25.3913C73.1774 25.3934 73.2698 25.3582 73.3375 25.2939C73.4053 25.2275 73.4443 25.1404 73.4463 25.0471L73.5284 21.8766L73.5407 21.5448L73.5777 20.2757C73.5736 20.2011 73.5859 20.1389 73.6003 20.0953C73.6331 20.1078 73.6803 20.1306 73.7522 20.1762L73.7666 20.1866C73.9657 20.2757 74.446 20.5018 74.7478 20.6552C74.717 20.8252 74.6883 20.9932 74.6883 21.1529C74.6883 21.6754 74.8607 22.1233 75.1892 22.4406L75.1727 22.4198C75.259 22.5401 75.3903 22.7413 75.5033 22.9486L75.6141 23.1809C75.6593 23.2804 75.6654 23.3385 75.6695 23.3592C75.6716 23.5292 75.6162 23.8299 75.4766 23.9149C75.337 23.9979 75.0332 23.9149 74.6575 23.6827C74.4892 23.5831 74.2798 23.6329 74.1771 23.7967C74.0724 23.9688 74.1237 24.1866 74.2941 24.2902C74.9285 24.6739 75.4478 24.7527 75.8358 24.5246C76.3429 24.226 76.3757 23.5354 76.3695 23.3281V23.3115C76.3572 23.1663 76.2977 22.9922 76.1971 22.7744C76.2176 22.6085 76.2751 22.4198 76.4291 22.395C76.4414 22.395 77.1886 22.2726 77.6485 23.1352C77.6875 23.2057 77.7491 23.2576 77.8188 23.2866C77.8045 23.3488 77.7922 23.4131 77.786 23.4774C77.4329 23.6453 77.1804 23.8672 77.0593 24.1492C76.7883 24.7796 77.1845 25.41 77.1886 25.4162L77.2564 25.4909L77.2358 25.4681C77.5438 25.7895 77.8517 25.8268 78.0549 25.8061C78.6256 25.7418 78.9664 25.1591 78.9705 25.1508C79.0157 25.0803 79.0321 24.987 79.0095 24.8937C78.991 24.8004 78.9376 24.7216 78.8576 24.6739C78.6954 24.566 78.4819 24.6137 78.3772 24.7796C78.3013 24.8957 78.1288 25.0844 77.9769 25.099C77.9133 25.1114 77.8394 25.0678 77.7614 24.9953C77.7326 24.9414 77.6628 24.7962 77.6628 24.6262C77.6628 24.5577 77.6793 24.4935 77.7039 24.4333C77.8024 24.2073 78.1411 24.0248 78.6338 23.9336C78.7467 23.9315 79.4488 23.9315 79.7978 24.367C80.038 24.6635 80.0729 25.1238 79.9045 25.7355C79.8984 25.748 79.3831 27.0212 76.0103 26.1855C75.8912 26.1544 75.764 26.1855 75.6757 26.2768C75.5874 26.3618 75.5525 26.4903 75.5833 26.6148C75.6223 26.7516 76.544 29.8371 82.5527 28.7796C82.7415 28.7464 82.8729 28.5619 82.8401 28.369C82.8031 28.1783 82.6204 28.0497 82.4316 28.0787C78.7529 28.7298 77.2276 27.7304 76.6282 27.0295C79.884 27.6101 80.5142 26.1254 80.5758 25.9512C80.8119 25.0886 80.7318 24.4064 80.3397 23.9211C79.7608 23.2037 78.759 23.2203 78.564 23.2306H78.5579L78.5517 23.2368C78.8309 22.2374 78.642 21.0471 78.4881 20.396L78.5681 20.3856L78.5456 20.396H78.5517L78.5681 20.3919C78.7036 20.34 79.416 20.1119 80.0133 20.4375C80.4526 20.6697 80.7565 21.1487 80.9166 21.8579L80.9966 21.9719L80.9782 25.1487C80.9782 25.3395 81.1301 25.4992 81.321 25.5075C81.5263 25.5075 81.6823 25.3499 81.6823 25.1487L81.7069 20.2218C81.7028 20.1679 81.7192 20.0891 81.7377 20.0539C82.2345 20.143 82.8154 20.2674 83.0064 20.3732C83.0823 20.4147 83.1767 20.4271 83.263 20.4022C83.3533 20.3753 83.4333 20.3131 83.4806 20.2301C83.5688 20.0476 83.5031 19.8361 83.3348 19.747C82.914 19.523 81.8055 19.353 81.7603 19.3447Z" fill="#111617"/>
</g>
<defs>
<clipPath id="clip0_1_848">
<rect width="112" height="29" fill="white"/>
</clipPath>
</defs>
</svg>
