<svg xmlns="http://www.w3.org/2000/svg" data-v-b8ff198c="" width="24px" height="24px" viewBox="0 0 32 32" style="display: none;"><symbol data-v-b8ff198c="" id="region-LK"><g data-v-b8ff198c="" clip-path="url(#clip0_304_6624)"><path data-v-b8ff198c="" d="M12 23.9999C18.6273 23.9999 23.9999 18.6273 23.9999 12C23.9999 5.37256 18.6273 0 12 0C5.37256 0 0 5.37256 0 12C0 18.6273 5.37256 23.9999 12 23.9999Z" fill="#FFDA44"/><path data-v-b8ff198c="" d="M9.39148 2.08691H5.23672C5.05259 2.21277 4.87241 2.34379 4.69583 2.4794L3.65234 11.9999L4.69583 21.5204C4.87241 21.6561 5.05259 21.7871 5.23672 21.9129H9.39148V2.08691Z" fill="#FF9811"/><path data-v-b8ff198c="" d="M0 12C0 15.8787 1.84069 19.3269 4.69566 21.5205V2.47949C1.84069 4.67315 0 8.12137 0 12V12Z" fill="#6DA544"/><path data-v-b8ff198c="" d="M19.3042 7.31543V7.61566L19.3154 7.61735L19.3042 7.31543Z" fill="#FFDA44"/><path data-v-b8ff198c="" d="M23.0435 15.1304H20.7826L19.8261 16.1738V18.2608H17.7391V17.2173H18.7826V15.1304H14.0869V16.4347H13.0435V13.9489C12.7233 13.6623 12.5217 13.246 12.5217 12.7825V5.99995C12.5217 5.13552 13.2225 4.43474 14.0869 4.43474V14.0869H16.1739L16.89 13.4901C16.7649 13.1923 16.6956 12.8651 16.6956 12.5217V10.9565H15.1304V7.8261H18.2608C18.2608 7.30438 19.0435 6.78262 19.0435 6.78262C19.0435 6.78262 19.8261 7.30434 19.8261 7.8261V8.60873V10.9566C20.4065 10.9634 21.3288 10.9484 22.3251 10.9566C22.0633 10.4991 21.913 9.9562 21.913 9.39135C21.913 8.47068 22.3105 7.64296 22.9432 7.07015C22.0312 5.04913 20.5759 3.32591 18.7634 2.08691H10.9565V21.913H18.7635C20.9675 20.4064 22.6432 18.184 23.4562 15.5806L23.0435 15.1304Z" fill="#A2001D"/></g><defs data-v-b8ff198c=""><clipPath data-v-b8ff198c="" id="clip0_304_6624"><rect data-v-b8ff198c="" width="24" height="24" fill="white"/></clipPath></defs></symbol></svg>