<svg width="51" height="40" viewBox="0 0 51 40" fill="none" xmlns="http://www.w3.org/2000/svg">
<rect width="51" height="40" rx="2.13" fill="white"/>
<rect x="0.5" y="0.5" width="50" height="39" rx="1.63" stroke="#9DADBC" stroke-opacity="0.36"/>
<g clip-path="url(#clip0)">
<path d="M32.8392 10.8596C34.1976 10.8596 35.3029 9.76938 35.3029 8.42955C35.3024 7.09024 34.1971 6 32.8392 6C31.4809 6 30.3761 7.09024 30.3761 8.42955C30.3755 9.76938 31.4809 10.8596 32.8392 10.8596Z" fill="#0054A6"/>
<path d="M17.9966 10.8596C19.355 10.8596 20.4598 9.76938 20.4598 8.42955C20.4598 7.09024 19.355 6 17.9966 6C16.6382 6 15.5329 7.09024 15.5329 8.42955C15.5329 9.76938 16.6382 10.8596 17.9966 10.8596Z" fill="#FFD600"/>
<path d="M34.2407 12.2441H31.8454C31.2599 12.2441 30.7838 12.7137 30.7838 13.2912V14.2616C30.7838 16.9734 28.9772 18.0824 27.7619 18.5224C27.7377 18.5312 27.714 18.5395 27.6904 18.5478C27.6656 18.5572 27.6414 18.5644 27.6172 18.5733C26.8586 18.8472 26.1168 18.9375 25.4582 18.9355V18.938C26.5672 18.9484 27.4668 19.8404 27.4668 20.9369C27.4668 22.0282 26.5756 22.9165 25.4739 22.9352C27.5015 22.9498 28.7625 22.5829 28.9083 22.5383C30.4766 22.1683 31.7802 21.5186 32.7887 20.584C34.457 19.0366 35.3029 16.7597 35.3029 13.8169V13.2912C35.3024 12.7137 34.8263 12.2441 34.2407 12.2441Z" fill="#0054A6"/>
<path d="M25.3698 22.9337C25.3861 22.9342 25.4019 22.9352 25.4182 22.9363V22.9347C25.4019 22.9337 25.3856 22.9337 25.3698 22.9337Z" fill="#95979A"/>
<path d="M25.4597 22.9358C25.4645 22.9352 25.4687 22.9352 25.4734 22.9352C25.4687 22.9352 25.4645 22.9352 25.4597 22.9352V22.9358Z" fill="#95979A"/>
<path d="M25.4334 18.9349V18.9375C25.4353 18.9375 25.4372 18.9368 25.4391 18.9368" fill="#4D4D4F"/>
<path d="M25.4387 18.9365C25.4371 18.9365 25.4355 18.937 25.434 18.937V18.9349C24.0703 18.9266 23.0739 18.5229 23.0739 18.5229L23.0744 18.5224C21.8592 18.0824 20.0526 16.9734 20.0526 14.2616V13.2912C20.0526 12.7137 19.5765 12.2441 18.9909 12.2441H16.5951C16.0096 12.2441 15.5334 12.7137 15.5334 13.2912V13.8169C15.5334 16.7597 16.3794 19.0366 18.0476 20.584C19.0514 21.5144 20.3488 22.1621 21.9076 22.5331H21.8744C21.9391 22.5471 22.0028 22.559 22.067 22.572C22.4852 22.6654 22.9229 22.738 23.3785 22.791C24.1035 22.8849 24.7679 22.9249 25.3698 22.9332C25.4045 22.9337 25.4398 22.9347 25.4739 22.9347C26.5756 22.916 27.4668 22.0277 27.4668 20.9364C27.4663 19.8337 26.5566 18.9365 25.4387 18.9365Z" fill="#FFD600"/>
<path d="M21.6361 30.1621C21.5914 30.3484 21.6004 30.5352 21.7508 30.7547C22.0191 31.1465 22.5663 31.3603 23.0182 31.1709C23.558 30.9441 25.9469 29.2587 25.9469 29.1808V31.6503C25.9469 31.8273 26.0921 31.9705 26.2715 31.9705H27.0775C27.2569 31.9705 27.4021 31.8273 27.4021 31.6503V27.3273C27.4021 27.2256 27.4858 27.1431 27.5889 27.1431H28.2649C28.3428 27.1431 28.4059 27.2053 28.4059 27.2821V31.6503C28.4059 31.8273 28.5511 31.9705 28.7305 31.9705H29.5365C29.7159 31.9705 29.8611 31.8273 29.8611 31.6503V26.0767C29.8611 25.8997 29.7153 25.7565 29.5365 25.7565H26.2715C26.0921 25.7565 25.9469 25.8997 25.9469 26.0767C25.9469 26.2313 25.9438 26.729 25.948 26.8831C25.2299 26.3081 24.9079 26.0279 23.4975 25.8806C23.075 25.8364 22.6462 25.8691 22.2401 25.9926C21.2684 26.2884 21.2726 26.8245 21.2689 26.9256C21.2568 27.2692 21.3684 27.608 21.5851 27.8773C21.8087 28.156 21.9286 28.5005 21.9413 28.8544C21.9507 29.1103 21.906 29.365 21.8303 29.6089C21.7677 29.8108 21.6782 29.9862 21.6361 30.1621ZM22.8919 27.5053C22.8135 27.4378 22.833 27.3107 22.9287 27.2702C23.4491 27.0497 25.3419 27.5639 25.2651 27.937C25.1867 28.3189 22.9082 29.9966 23.0939 29.4226C23.1234 29.3313 23.2239 29.008 23.2476 28.9048C23.286 28.7361 23.3086 28.5664 23.3007 28.3936C23.2839 28.0128 23.1223 27.7896 22.8919 27.5053Z" fill="#4E4E50"/>
<path d="M35.6701 25.7571H30.6796C30.4971 25.7571 30.3508 25.8967 30.355 26.0664L30.3319 26.9018C30.3319 26.906 30.3324 26.9111 30.3324 26.9163C30.3456 27.1405 30.2987 27.663 30.4818 27.9967C30.5781 28.1726 30.7775 28.2806 31.0758 28.3241C31.3741 28.3682 31.675 28.3932 31.7702 28.4912C32.138 28.8732 31.4751 29.0413 31.0484 29.1886C30.4692 29.3889 30.3466 29.569 30.3466 30.0184C30.3466 30.5067 30.2698 30.7708 30.4671 31.2301C30.6796 31.7246 31.1605 31.6473 31.6392 31.6146C34.539 31.4174 34.568 32.2674 35.4686 31.8553C35.8543 31.6789 35.9863 31.3821 35.9979 30.9524C36.0026 30.7765 35.9942 30.5985 35.9942 30.4221V28.7548V26.0575C35.9947 25.892 35.8495 25.7571 35.6701 25.7571ZM34.195 30.3489C33.3885 30.1948 32.3658 30.2457 32.2695 30.2291C32.0338 30.1876 32.0027 29.9639 32.2726 29.8067C32.4268 29.7169 33.4369 29.4113 33.4532 28.6261V28.6163C33.4611 28.2292 33.2138 27.88 32.8377 27.745L32.3689 27.5769C32.1343 27.5318 32.0333 27.3309 32.0333 27.2173C32.0333 27.1706 32.0617 27.1504 32.0922 27.1421C32.1285 27.1327 32.6535 27.14 32.6535 27.14H34.1602C34.3396 27.14 34.4848 27.2749 34.4848 27.442C34.5054 27.8561 34.5206 28.1223 34.5311 28.5364C34.5396 28.8576 34.5459 29.1788 34.5432 29.4995C34.5427 29.583 34.5827 29.9385 34.5838 30.1813C34.5864 30.4761 34.2923 30.3676 34.195 30.3489Z" fill="#4E4E50"/>
<path d="M20.6418 27.1379C20.8212 27.1379 20.9664 26.9905 20.9664 26.8089V26.0933C20.9664 25.9117 20.8212 25.7643 20.6418 25.7643L19.8527 25.7498C20.1815 25.2682 20.1583 24.0275 18.8599 23.808C17.9577 23.6555 16.4683 24.5412 15.7949 23.4048C15.636 23.1365 15.3009 23.8537 15.2467 24.2844C15.2309 24.411 15.2141 24.7519 15.5761 24.9901C15.9817 25.2568 16.8245 25.357 18.136 25.0887C18.7947 24.9538 19.0157 25.7643 18.3181 25.7643H16.6614H15.3956C15.2162 25.7643 15.071 25.9117 15.071 26.0933V26.8084C15.071 26.99 15.2162 27.1374 15.3956 27.1374L17.2938 27.1368C17.2938 27.1368 17.2943 27.9946 17.2974 28.856C17.2995 29.4813 17.6436 29.7355 18.6537 29.6146L19.4765 29.4766C19.5654 29.459 19.6454 29.5368 19.6307 29.6276C19.5223 30.2897 18.7568 30.625 17.8809 30.5705C17.2869 30.5336 16.8923 30.3499 16.7272 30.0568C16.3068 29.3106 16.4057 27.8981 16.4057 27.8981C16.4057 27.7165 16.2605 27.5691 16.0811 27.5691H15.4293C15.3493 27.5691 15.2762 27.5987 15.2194 27.6469C15.1494 27.7071 15.0531 28.0143 15.0284 28.2888C14.9916 28.6925 14.9768 29.3152 15.0715 29.7407C15.4114 31.2689 16.2521 32.0167 18.0824 32.0167C19.0377 32.0167 19.7164 31.6716 20.1741 31.2913C20.6828 30.8689 20.9669 30.3173 20.9669 29.651V28.6323C20.9669 28.4829 20.9285 28.1617 20.6081 28.0517C20.4834 28.0091 20.3472 28.0174 20.2236 28.0621L19.2987 28.2784C19.2919 28.281 19.2845 28.2831 19.2771 28.2847C18.9999 28.3469 18.861 28.3226 18.7495 28.2219C18.6669 28.1477 18.6258 28.0377 18.6269 27.9271L18.6306 27.1389L20.6418 27.1379Z" fill="#4E4E50"/>
<path d="M32.8892 33.9922C33.5195 34.0711 34.0519 33.5464 33.9719 32.9248C33.9172 32.5014 33.5705 32.1589 33.1412 32.1049C32.511 32.026 31.9786 32.5512 32.0585 33.1728C32.1132 33.5957 32.4599 33.9382 32.8892 33.9922Z" fill="#4E4E50"/>
</g>
<defs>
<clipPath id="clip0">
<rect width="21" height="28" fill="white" transform="translate(15 6)"/>
</clipPath>
</defs>
</svg>
