<svg xmlns="http://www.w3.org/2000/svg" width="20" height="20" viewBox="0 0 20 20">
  <g id="Group_96" data-name="Group 96" transform="translate(3524 2939.953)">
    <circle id="Ellipse_21" data-name="Ellipse 21" cx="9" cy="9" r="9" transform="translate(-3523 -2938.953)" fill="#e5f5fd"/>
    <path id="Path_305" data-name="Path 305" d="M113.474,140.83a9.467,9.467,0,0,1-9.372-8.158,9.474,9.474,0,1,0,18.743,0A9.467,9.467,0,0,1,113.474,140.83Z" transform="translate(-3627.474 -3063.94)" fill="#c8effe"/>
    <path id="Path_308" data-name="Path 308" d="M194.632,51.83h2.105a1.581,1.581,0,0,1,1.579,1.579h1.053a2.635,2.635,0,0,0-2.632-2.632h-.526V48.672h-1.053v2.105h-.526a2.632,2.632,0,1,0,0,5.263h2.105a1.579,1.579,0,1,1,0,3.158h-2.105a1.581,1.581,0,0,1-1.579-1.579H192a2.635,2.635,0,0,0,2.632,2.632h.526v2.105h1.053V60.251h.526a2.632,2.632,0,0,0,0-5.263h-2.105a1.579,1.579,0,1,1,0-3.158Z" transform="translate(-3709.684 -2985.467)" fill="#1c3c6b"/>
    <path id="Path_309" data-name="Path 309" d="M106,20.672a9.982,9.982,0,0,0,6.667-2.546l-.7-.784a8.941,8.941,0,1,1,.995-1.045l.818.662A10,10,0,1,0,106,20.672Z" transform="translate(-3620 -2940.625)" fill="#1c3c6b"/>
  </g>
</svg>
