<svg xmlns="http://www.w3.org/2000/svg" data-v-b8ff198c="" width="24px" height="24px" viewBox="0 0 32 32" style="display: none;"><symbol data-v-b8ff198c="" id="region-SG"><path data-v-b8ff198c="" d="M12 24C18.6274 24 24 18.6274 24 12C24 5.37258 18.6274 0 12 0C5.37258 0 0 5.37258 0 12C0 18.6274 5.37258 24 12 24Z" fill="#F0F0F0"/><path data-v-b8ff198c="" d="M0 12C0 5.37263 5.37262 0 12 0C18.6274 0 24 5.37263 24 12" fill="#D80027"/><path data-v-b8ff198c="" d="M7.30451 6.26077C7.30451 4.51242 8.53324 3.05189 10.1741 2.69353C9.92187 2.6385 9.66026 2.60864 9.39143 2.60864C7.37435 2.60864 5.73926 4.24374 5.73926 6.26081C5.73926 8.27789 7.37435 9.91298 9.39143 9.91298C9.66016 9.91298 9.92182 9.88313 10.1741 9.82805C8.53324 9.46969 7.30451 8.00916 7.30451 6.26077V6.26077Z" fill="#F0F0F0"/><path data-v-b8ff198c="" d="M12 2.86938L12.259 3.66649H13.0972L12.4191 4.1592L12.6781 4.95631L12 4.4637L11.3219 4.95631L11.5809 4.1592L10.9028 3.66649H11.741L12 2.86938Z" fill="#F0F0F0"/><path data-v-b8ff198c="" d="M9.96688 4.43481L10.2259 5.23197H11.064L10.3859 5.72463L10.645 6.52174L9.96688 6.02913L9.28869 6.52174L9.54777 5.72463L8.86963 5.23197H9.7078L9.96688 4.43481Z" fill="#F0F0F0"/><path data-v-b8ff198c="" d="M14.0332 4.43481L14.2923 5.23197H15.1304L14.4523 5.72463L14.7113 6.52174L14.0332 6.02913L13.3551 6.52174L13.6141 5.72463L12.936 5.23197H13.7742L14.0332 4.43481Z" fill="#F0F0F0"/><path data-v-b8ff198c="" d="M13.251 6.78247L13.51 7.57963H14.3481L13.67 8.07228L13.9291 8.86939L13.251 8.37678L12.5729 8.86939L12.8319 8.07228L12.1538 7.57963H12.9919L13.251 6.78247Z" fill="#F0F0F0"/><path data-v-b8ff198c="" d="M10.7495 6.78247L11.0085 7.57963H11.8468L11.1686 8.07228L11.4277 8.86939L10.7495 8.37678L10.0714 8.86939L10.3304 8.07228L9.65234 7.57963H10.4905L10.7495 6.78247Z" fill="#F0F0F0"/></symbol></svg>