<svg xmlns="http://www.w3.org/2000/svg" data-v-b8ff198c="" width="24px" height="24px" viewBox="0 0 32 32" style="display: none;"><symbol data-v-b8ff198c="" id="region-PK"><g data-v-b8ff198c=""><circle data-v-b8ff198c="" cx="12" cy="12" r="12" fill="#0A632F"/><path data-v-b8ff198c="" fill-rule="evenodd" clip-rule="evenodd" d="M16.8173 12.9491C16.7102 14.0048 16.2652 15.0192 15.4786 15.8145C13.6037 17.7102 10.498 17.6437 8.54187 15.6658C6.58575 13.688 6.51992 10.5478 8.39483 8.65205C9.18142 7.85672 10.1846 7.40677 11.2287 7.29844C10.8998 7.49441 10.5885 7.73622 10.3044 8.02357C8.59989 9.74698 8.51558 12.4559 10.116 14.0742C11.7165 15.6924 14.3957 15.6072 16.1001 13.8838C16.3843 13.5964 16.6235 13.2817 16.8173 12.9491V12.9491ZM14.6654 10.7157L14.3997 12.3182L13.6573 10.8772L12.0679 11.1169L13.1939 9.95766L12.4773 8.50334L13.9156 9.22793L15.0621 8.08939L14.8251 9.69645L16.2503 10.4471L14.6654 10.7157V10.7157Z" fill="white"/></g></symbol></svg>