<?xml version="1.0" encoding="UTF-8"?>
<svg width="32px" height="32px" viewBox="0 0 32 32" version="1.1" xmlns="http://www.w3.org/2000/svg" xmlns:xlink="http://www.w3.org/1999/xlink">
    <!-- Generator: Sketch 57.1 (83088) - https://sketch.com -->
    <title>Star</title>
    <desc>Created with Sketch.</desc>
    <defs>
        <path d="M30.304506,10.8395628 L21.5821179,9.56792105 L17.6836104,1.66344344 C16.985103,0.254488217 14.9612224,0.236577769 14.2567448,1.66344344 L10.3582373,9.56792105 L1.63584925,10.8395628 C0.0716701417,11.0664285 -0.55519553,12.9947867 0.579132828,14.0992643 L6.88958059,20.2485181 L5.39704328,28.9350852 C5.12838656,30.5052345 6.7821179,31.6813539 8.16719253,30.9470255 L15.9701776,26.845533 L23.7731627,30.9470255 C25.1582373,31.6753837 26.8119686,30.5052345 26.5433119,28.9350852 L25.0507746,20.2485181 L31.3612224,14.0992643 C32.4955507,12.9947867 31.8686851,11.0664285 30.304506,10.8395628 L30.304506,10.8395628 Z" id="path-1"></path>
    </defs>
    <g id="Hotel_User_part_UI" stroke="none" stroke-width="1" fill="none" fill-rule="evenodd">
        <g id="Search_Results_modify_01" transform="translate(-184.000000, -1061.000000)">
            <g id="Results" transform="translate(163.000000, 191.000000)">
                <g id="Filters">
                    <g id="Price-Range-Copy" transform="translate(20.000000, 832.000000)">
                        <g id="Components/Rating_with-name" transform="translate(1.000000, 38.000000)">
                            <g id="Rating">
                                <g id="Star">
                                    <mask id="mask-2" fill="white">
                                        <use xlink:href="#path-1"></use>
                                    </mask>
                                    <path stroke="#056998" d="M30.2327378,11.3343854 L30.2323732,11.3343324 L21.2499354,10.0247778 L21.1336917,9.78908595 L17.2356402,1.88553041 C16.7176736,0.840743177 15.222977,0.835831797 14.705171,1.88460834 L10.6904198,10.0247778 L10.43037,10.0626906 L1.7076174,11.3343854 C0.553244001,11.5018136 0.0910330407,12.9261445 0.928083016,13.7411669 L7.42689762,20.0739758 L7.38235945,20.333188 L5.88988113,29.0194111 C5.69252408,30.1728534 6.90792536,31.0487296 7.93455661,30.5044416 L15.9701776,26.2806684 L16.2028135,26.4029491 L24.0058786,30.5044837 C25.0331753,31.0447 26.2475488,30.1712033 26.0505331,29.0197551 L24.5134576,20.0739758 L24.7018244,19.8904206 L31.012414,13.7410287 C31.8493222,12.9261445 31.3871112,11.5018136 30.2327378,11.3343854 Z"></path>
                                </g>
                            </g>
                        </g>
                    </g>
                </g>
            </g>
        </g>
    </g>
</svg>