<svg width="26" height="25" viewBox="0 0 26 25" fill="none" xmlns="http://www.w3.org/2000/svg">
<path d="M21.5604 23C21.5604 23.8008 20.9112 24.45 20.1104 24.45L19.1103 24.45C18.3095 24.45 17.6603 23.8008 17.6603 23L17.6603 21.6611L21.5604 21.6611L21.5604 23Z" fill="#43CAF9" stroke="#1C3C6B" stroke-width="1.1"/>
<path d="M9.3377 23C9.3377 23.8008 8.68851 24.45 7.8877 24.45L6.88769 24.45C6.08688 24.45 5.43769 23.8008 5.43769 23L5.43769 21.6611L9.3377 21.6611L9.3377 23Z" fill="#43CAF9" stroke="#1C3C6B" stroke-width="1.1"/>
<path d="M22.666 5H24.4438C24.9961 5 25.4438 5.44772 25.4438 6V8.88889" stroke="#1C3C6B" stroke-width="1.1" stroke-linecap="round"/>
<path d="M3.77734 5H1.99956C1.44728 5 0.999565 5.44772 0.999565 6V8.88889" stroke="#1C3C6B" stroke-width="1.1" stroke-linecap="round"/>
<path d="M3.77266 4C3.77266 2.09462 5.31727 0.55 7.22266 0.55H19.2227C21.128 0.55 22.6727 2.09462 22.6727 4V20.2222C22.6727 21.023 22.0235 21.6722 21.2227 21.6722H5.22266C4.42184 21.6722 3.77266 21.023 3.77266 20.2222V4Z" fill="#E5F5FD" stroke="#1C3C6B" stroke-width="1.1"/>
<line x1="10.9943" y1="15.0057" x2="15.4499" y2="15.0057" stroke="#1C3C6B" stroke-width="1.1" stroke-linecap="round"/>
<path d="M9.88398 19.2222C9.88398 18.4214 10.5332 17.7722 11.334 17.7722H15.1118C15.9126 17.7722 16.5618 18.4214 16.5618 19.2222V21.6722H9.88398V19.2222Z" fill="#E5F5FD" stroke="#1C3C6B" stroke-width="1.1"/>
<line x1="4.32734" y1="11.1166" x2="22.1162" y2="11.1166" stroke="#1C3C6B" stroke-width="1.1" stroke-linecap="round"/>
<circle cx="5.25969" cy="15.926" r="1.43704" fill="#43CAF9" stroke="#1C3C6B" stroke-width="1.2"/>
<circle cx="21.1855" cy="15.926" r="1.43704" fill="#43CAF9" stroke="#1C3C6B" stroke-width="1.2"/>
</svg>
