<svg xmlns="http://www.w3.org/2000/svg" data-v-b8ff198c="" width="24px" height="24px" viewBox="0 0 32 32" style="display: none;"><symbol data-v-b8ff198c="" id="region-MY"><path data-v-b8ff198c="" d="M12 24C18.6274 24 24 18.6274 24 12C24 5.37258 18.6274 0 12 0C5.37258 0 0 5.37258 0 12C0 18.6274 5.37258 24 12 24Z" fill="#F0F0F0"/><path data-v-b8ff198c="" d="M11.4785 11.9998H24.0002C24.0002 10.9167 23.8559 9.86754 23.5868 8.86938H11.4785V11.9998Z" fill="#D80027"/><path data-v-b8ff198c="" d="M11.4785 5.7391H22.239C21.5044 4.54041 20.5652 3.48089 19.4701 2.60864H11.4785V5.7391Z" fill="#D80027"/><path data-v-b8ff198c="" d="M12.0001 24C14.8243 24 17.4201 23.0239 19.47 21.3914H4.53027C6.58016 23.0239 9.17596 24 12.0001 24V24Z" fill="#D80027"/><path data-v-b8ff198c="" d="M1.76146 18.2608H22.2389C22.8286 17.2986 23.2859 16.2467 23.5868 15.1304H0.413574C0.714371 16.2467 1.17173 17.2986 1.76146 18.2608V18.2608Z" fill="#D80027"/><path data-v-b8ff198c="" d="M12 12C12 5.37262 12 4.59131 12 0C5.37262 0 0 5.37262 0 12H12Z" fill="#0052B4"/><path data-v-b8ff198c="" d="M7.97952 10.2716C6.34068 10.2716 5.01215 8.94302 5.01215 7.30422C5.01215 5.66543 6.34072 4.33685 7.97952 4.33685C8.49051 4.33685 8.9713 4.46608 9.39107 4.69352C8.73257 4.0496 7.83201 3.6521 6.83821 3.6521C4.82122 3.6521 3.18604 5.28724 3.18604 7.30427C3.18604 9.3213 4.82122 10.9564 6.83821 10.9564C7.83201 10.9564 8.73257 10.5589 9.39107 9.91502C8.9713 10.1424 8.49055 10.2716 7.97952 10.2716V10.2716Z" fill="#FFDA44"/><path data-v-b8ff198c="" d="M8.81549 5.21729L9.34232 6.31894L10.5321 6.04407L9.99927 7.14277L10.9561 7.90153L9.7648 8.17008L9.76813 9.39122L8.81549 8.62725L7.8628 9.39122L7.86609 8.17008L6.6748 7.90153L7.63162 7.14277L7.09879 6.04407L8.28862 6.31894L8.81549 5.21729Z" fill="#FFDA44"/></symbol></svg>