<svg xmlns="http://www.w3.org/2000/svg" data-v-b8ff198c="" width="24px" height="24px" viewBox="0 0 32 32" style="display: none;"><symbol data-v-b8ff198c="" id="region-NP"><g data-v-b8ff198c="" clip-path="url(#clip0_304_6614)"><path data-v-b8ff198c="" d="M12 24C18.6274 24 24 18.6274 24 12C24 5.37258 18.6274 0 12 0C5.37258 0 0 5.37258 0 12C0 18.6274 5.37258 24 12 24Z" fill="#F0F0F0"/><path data-v-b8ff198c="" d="M23.9298 13.3049L23.9293 13.3042L23.9292 13.3049H23.9298Z" fill="#0052B4"/><path data-v-b8ff198c="" d="M23.9292 13.3045C23.9292 13.3044 23.9293 13.3043 23.9293 13.3041L10.7693 0.0625C10.1757 0.123016 9.59475 0.226797 9.02986 0.370656C3.83897 1.6923 0 12.0001 0 12.0001C0 12.0001 16.7999 23.2424 18.7165 21.9453C19.1 21.6858 19.4677 21.4047 19.8177 21.1038L12.0185 13.3045H23.9292Z" fill="#0052B4"/><path data-v-b8ff198c="" d="M20.8695 12.0001L9.19898 0.32959C3.92287 1.59132 0 6.33723 0 12.0001C0 18.6275 5.37262 24.0001 12 24.0001C14.5139 24.0001 16.8467 23.2266 18.7748 21.9053L8.86955 12.0001H20.8695Z" fill="#D80027"/><path data-v-b8ff198c="" d="M11.4126 17.7183L9.94704 17.029L10.7275 15.6097L9.13605 15.9141L8.9344 14.3064L7.82594 15.4888L6.71749 14.3064L6.51579 15.9141L4.92443 15.6096L5.70485 17.029L4.23926 17.7183L5.70485 18.4076L4.92443 19.827L6.51588 19.5226L6.71744 21.1302L7.82594 19.9478L8.9344 21.1302L9.13605 19.5226L10.7274 19.8271L9.94699 18.4077L11.4126 17.7183Z" fill="#F0F0F0"/><path data-v-b8ff198c="" d="M10.4347 6.65539L9.36877 6.15406L9.93638 5.12173L8.77889 5.34317L8.63222 4.17383L7.82602 5.03384L7.01982 4.17383L6.8731 5.34317L5.71561 5.12173L6.28327 6.15406L5.21729 6.65539L7.82602 7.1772L10.4347 6.65539Z" fill="#F0F0F0"/><path data-v-b8ff198c="" d="M10.9562 6.65527C10.9562 8.38416 9.55465 9.78573 7.82576 9.78573C6.09687 9.78573 4.69531 8.38416 4.69531 6.65527" fill="#F0F0F0"/></g><defs data-v-b8ff198c=""><clipPath data-v-b8ff198c="" id="clip0_304_6614"><rect data-v-b8ff198c="" width="24" height="24" fill="white"/></clipPath></defs></symbol></svg>