<?xml version="1.0" encoding="UTF-8"?>
<svg width="18px" height="18px" viewBox="0 0 18 18" version="1.1" xmlns="http://www.w3.org/2000/svg" xmlns:xlink="http://www.w3.org/1999/xlink">
    <!-- Generator: Sketch 61 (89581) - https://sketch.com -->
    <title>icon/places/Hotel-safe</title>
    <desc>Created with Sketch.</desc>
    <g id="Hotel_User_part_UI" stroke="none" stroke-width="1" fill="none" fill-rule="evenodd">
        <g id="properties_details_02" transform="translate(-725.000000, -2014.000000)">
            <g id="Facilities" transform="translate(164.000000, 1818.000000)">
                <g id="offer-copy-3" transform="translate(32.000000, 193.000000)">
                    <g id="Pool-Copy" transform="translate(529.000000, 3.000000)">
                        <g id="icon/places/locker">
                            <g id="Group-6" transform="translate(1.500000, 2.250000)">
                                <path d="M13.5128898,0.254288136 C14.2120424,0.254288136 14.7840763,0.826322034 14.7840763,1.52547458 L14.7840763,1.52547458 L14.7840763,10.0810678 C14.7840763,10.7802203 14.2120424,11.3522542 13.5128898,11.3522542 L13.5128898,11.3522542 L12.6835678,11.3522542 L12.6835678,12.6071695 C12.6835678,12.817678 12.5129746,12.9885254 12.3022119,12.9885254 L12.3022119,12.9885254 L10.7747542,12.9885254 C10.5642458,12.9885254 10.3933983,12.817678 10.3933983,12.6071695 L10.3933983,12.6071695 L10.3933983,11.3522542 L4.38907627,11.3522542 L4.38907627,12.6071695 C4.38907627,12.817678 4.21848305,12.9885254 4.00772034,12.9885254 L4.00772034,12.9885254 L2.48026271,12.9885254 C2.26975424,12.9885254 2.09890678,12.817678 2.09890678,12.6071695 L2.09890678,12.6071695 L2.09890678,11.3522542 L1.27111017,11.3522542 C0.571957627,11.3522542 -7.62711865e-05,10.7802203 -7.62711865e-05,10.0810678 L-7.62711865e-05,10.0810678 L-7.62711865e-05,1.52547458 C-7.62711865e-05,0.826322034 0.571957627,0.254288136 1.27111017,0.254288136 L1.27111017,0.254288136 Z M10.4058559,2.937 C8.98212712,2.937 7.82280508,4.09377966 7.82280508,5.51776271 C7.82280508,6.94123729 8.98212712,8.10055932 10.4058559,8.10055932 C11.829839,8.10055932 12.9863644,6.94123729 12.9863644,5.51776271 C12.9863644,4.09377966 11.829839,2.937 10.4058559,2.937 Z M6.34339831,6.93615254 L5.48916102,6.93615254 L5.48916102,7.79038983 L6.34339831,7.79038983 L6.34339831,6.93615254 Z M4.49763559,6.93615254 L3.64339831,6.93615254 L3.64339831,7.79038983 L4.49763559,7.79038983 L4.49763559,6.93615254 Z M2.64907627,6.93615254 L1.79509322,6.93615254 L1.79509322,7.79038983 L2.64907627,7.79038983 L2.64907627,6.93615254 Z M10.4057288,3.57264407 C11.4788644,3.57264407 12.3508983,4.44467797 12.3508983,5.51781356 C12.3508983,6.59044068 11.4788644,7.46501695 10.4057288,7.46501695 C9.33055932,7.46501695 8.45827119,6.59044068 8.45827119,5.51781356 C8.45827119,4.44467797 9.33055932,3.57264407 10.4057288,3.57264407 Z M11.0390339,4.83111864 C10.9093729,4.71442373 10.7085254,4.72179661 10.5890339,4.84891525 L10.5890339,4.84891525 L9.75259322,5.754 C9.63310169,5.88366102 9.64301695,6.08450847 9.77013559,6.204 C9.83140678,6.26018644 9.91022034,6.28789831 9.98649153,6.28789831 C10.0729322,6.28789831 10.1568305,6.25484746 10.2203898,6.18645763 L10.2203898,6.18645763 L11.0568305,5.28111864 C11.176322,5.15145763 11.1684407,4.95061017 11.0390339,4.83111864 Z M6.34339831,5.0929322 L5.48916102,5.0929322 L5.48916102,5.94971186 L6.34339831,5.94971186 L6.34339831,5.0929322 Z M4.49763559,5.0929322 L3.64339831,5.0929322 L3.64339831,5.94971186 L4.49763559,5.94971186 L4.49763559,5.0929322 Z M2.64907627,5.0929322 L1.79509322,5.0929322 L1.79509322,5.94971186 L2.64907627,5.94971186 L2.64907627,5.0929322 Z M6.34339831,3.25250847 L5.48916102,3.25250847 L5.48916102,4.10649153 L6.34339831,4.10649153 L6.34339831,3.25250847 Z M4.49763559,3.25250847 L3.64339831,3.25250847 L3.64339831,4.10649153 L4.49763559,4.10649153 L4.49763559,3.25250847 Z M2.64907627,3.25250847 L1.79509322,3.25250847 L1.79509322,4.10649153 L2.64907627,4.10649153 L2.64907627,3.25250847 Z" id="Combined-Shape" fill="#5D6974"></path>
                                <g id="Group-5" transform="translate(0.000000, 0.022322)"></g>
                            </g>
                        </g>
                    </g>
                </g>
            </g>
        </g>
    </g>
</svg>