<svg xmlns="http://www.w3.org/2000/svg" data-v-b8ff198c="" width="24px" height="24px" viewBox="0 0 32 32" style="display: none;"><symbol data-v-b8ff198c="" id="region-US"><g data-v-b8ff198c=""><path data-v-b8ff198c="" d="M12 23C5.9247 23 1 18.0753 1 12C1 5.9247 5.9247 1 12 1C18.0753 1 23 5.9247 23 12C23 18.0753 18.0753 23 12 23ZM18.9905 16.3472V16.2317C18.9905 15.2175 18.9905 14.7544 18.2733 14.3441C18.0428 14.2134 17.806 14.0941 17.5638 13.9866C17.1601 13.8029 16.8928 13.683 16.532 13.155C16.4889 13.0923 16.4464 13.0292 16.4044 12.9658C16.0249 12.3883 15.751 11.9725 14.7082 12.1375C12.6567 12.4631 12.5049 12.8239 12.4147 13.4333L12.4004 13.5334C12.2673 14.4244 12.2431 14.7236 12.6149 15.1141C14.0064 16.5738 14.8402 17.6265 15.0932 18.2425C15.2164 18.5428 15.5332 19.4525 15.3154 20.3523C16.6506 19.8205 17.8391 18.9767 18.7815 17.8916C18.9025 17.4802 18.9905 16.9676 18.9905 16.3472V16.3472ZM12 3.0163C9.4513 3.0163 7.149 4.0789 5.5144 5.7839C5.7091 5.9192 5.8785 6.1095 5.9951 6.3713C6.2195 6.874 6.2195 7.3921 6.2195 7.8508C6.2195 8.2116 6.2195 8.5548 6.335 8.8023C6.4934 9.1411 7.1776 9.2863 7.7815 9.4117C7.9982 9.4579 8.2204 9.5041 8.4228 9.5602C8.9794 9.7142 9.4106 10.2147 9.7549 10.6162C9.8979 10.7823 10.1102 11.0276 10.2169 11.0892C10.2719 11.0496 10.449 10.8571 10.5359 10.5414C10.6041 10.2994 10.5843 10.086 10.4864 9.9694C9.8704 9.2434 9.9045 7.8464 10.0948 7.3305C10.394 6.5176 11.329 6.5781 12.0132 6.6221C12.2684 6.6386 12.5082 6.6551 12.6886 6.632C13.3728 6.5462 13.584 5.5045 13.7325 5.301C14.0537 4.861 15.0371 4.1977 15.6465 3.7885C14.4986 3.27809 13.2562 3.01499 12 3.0163V3.0163Z" fill="#1C3C6B"/></g></symbol></svg>